# xmcd
# Track frame offsets:
# 150
# 9781
# 21137
# 34803
# 46099
# 59915
# 71313
# 88489
# 101165
# 113091
# 127192
# 144833
# 163988
# 177129
# 194365
# 206861
# 217602
# 229348
# 239939
# 250874
#
# Disc length: 3567 seconds
# Revision: 0
# Processed by: cddbd v1.5.2PL0 Copyright (c) Steve Scherf et al.
# Submitted via: VisiTrax 2.11.1.266 - For more info visit www.synapsa.com
#
DISCID=260ded14
DTITLE=Various Artist - 100 Country Hits [CD4)
DYEAR=2010
DGENRE=Country
TTITLE0=Waylon Jennings - Theme from the dukes of hazzard
TTITLE1=Don Gibson - Oh, lonesome me
TTITLE2=Jimmy Dean - Big bad John
TTITLE3=Roy Orbison - Blue Bayou
TTITLE4=Barbara Fairchild - Teddy Bear song
TTITLE5=Peter Belli - To til en vals
TTITLE6=Sara Evans - Suds in the bucket
TTITLE7=Gary Stewart - She's actin' single
TTITLE8=Bobby Bare - The streets of Baltimore
TTITLE9=Ricky Van Shelton - I'll leave this world loving you
TTITLE10=Phil Vassar - Just another day in paradise
TTITLE11=Ester Brohus - Little white lies
TTITLE12=Larry Gatlin and The Gatlin Brothers - Houston (means i'm one day close
TTITLE12=r to you)
TTITLE13=Ray Price - For the good times
TTITLE14=Hank Snow - I've been everywhere
TTITLE15=Hank Locklin - Please help me, I'm falling
TTITLE16=Roy Rogers And The sons Of The Pioneers - Stampede
TTITLE17=Floyd Cramer - San Antonio Rose
TTITLE18=Charlie Walker - Pick me up on your way down
TTITLE19=Johnny Cash - A boy named Sue
EXTD=Sony Music\n88697736142
EXTT0=
EXTT1=
EXTT2=
EXTT3=
EXTT4=
EXTT5=
EXTT6=
EXTT7=
EXTT8=
EXTT9=
EXTT10=
EXTT11=
EXTT12=
EXTT13=
EXTT14=
EXTT15=
EXTT16=
EXTT17=
EXTT18=
EXTT19=
PLAYORDER=
